<?xml version="1.0" encoding="UTF-8" standalone="no"?>
<!-- Created with Inkscape (http://www.inkscape.org/) -->

<svg
   xmlns:dc="http://purl.org/dc/elements/1.1/"
   xmlns:cc="http://creativecommons.org/ns#"
   xmlns:rdf="http://www.w3.org/1999/02/22-rdf-syntax-ns#"
   xmlns:svg="http://www.w3.org/2000/svg"
   xmlns="http://www.w3.org/2000/svg"
   xmlns:xlink="http://www.w3.org/1999/xlink"
   xmlns:sodipodi="http://sodipodi.sourceforge.net/DTD/sodipodi-0.dtd"
   xmlns:inkscape="http://www.inkscape.org/namespaces/inkscape"
   width="465.13199"
   height="335"
   viewBox="0 0 465.13198 335.00001"
   id="svg4185"
   version="1.1"
   inkscape:version="0.91 r13725"
   sodipodi:docname="blankBlueFolder.svg">
  <defs
     id="defs4187">
    <filter
       inkscape:collect="always"
       style="color-interpolation-filters:sRGB"
       id="filter4328"
       x="-0.033408158"
       width="1.0668163"
       y="-1.4328393"
       height="3.8656785">
      <feGaussianBlur
         inkscape:collect="always"
         stdDeviation="4.9991943"
         id="feGaussianBlur4330" />
    </filter>
    <inkscape:path-effect
       effect="envelope"
       id="path-effect4318"
       is_visible="true"
       yy="true"
       xx="true"
       bendpath1="m 124.6741,790.37375 359.13584,0"
       bendpath2="m 483.80994,790.37375 0,8.37363"
       bendpath3="m 124.6741,798.74738 c 126.41484,4.18931 246.75035,4.57904 359.13584,0"
       bendpath4="m 124.6741,790.37375 0,8.37363"
       bendpath3-nodetypes="cc" />
    <filter
       inkscape:collect="always"
       style="color-interpolation-filters:sRGB"
       id="filter4220"
       x="-0.015349741"
       width="1.0306995"
       y="-0.6583336"
       height="2.3166673">
      <feGaussianBlur
         inkscape:collect="always"
         stdDeviation="2.2969342"
         id="feGaussianBlur4222" />
    </filter>
    <linearGradient
       inkscape:collect="always"
       xlink:href="#linearGradient4152"
       id="linearGradient4158"
       x1="430.77689"
       y1="559.24829"
       x2="287.49472"
       y2="797.43158"
       gradientUnits="userSpaceOnUse"
       gradientTransform="matrix(1.1261476,0,0,1.1261476,-76.873395,44.34049)" />
    <linearGradient
       inkscape:collect="always"
       id="linearGradient4152">
      <stop
         style="stop-color:#69caf8;stop-opacity:1"
         offset="0"
         id="stop4154" />
      <stop
         style="stop-color:#6bccf9;stop-opacity:1"
         offset="1"
         id="stop4156" />
    </linearGradient>
  </defs>
  <sodipodi:namedview
     id="base"
     pagecolor="#ffffff"
     bordercolor="#666666"
     borderopacity="1.0"
     inkscape:pageopacity="0.0"
     inkscape:pageshadow="2"
     inkscape:zoom="0.98994949"
     inkscape:cx="189.57748"
     inkscape:cy="278.23228"
     inkscape:document-units="px"
     inkscape:current-layer="layer1"
     showgrid="false"
     inkscape:window-width="1920"
     inkscape:window-height="1018"
     inkscape:window-x="-8"
     inkscape:window-y="-8"
     inkscape:window-maximized="1"
     units="px" />
  <metadata
     id="metadata4190">
    <rdf:RDF>
      <cc:Work
         rdf:about="">
        <dc:format>image/svg+xml</dc:format>
        <dc:type
           rdf:resource="http://purl.org/dc/dcmitype/StillImage" />
        <dc:title></dc:title>
      </cc:Work>
    </rdf:RDF>
  </metadata>
  <g
     inkscape:label="Layer 1"
     inkscape:groupmode="layer"
     id="layer1"
     transform="translate(0,-717.36213)">
    <g
       transform="translate(-33.182272,98.255887)"
       id="g4176">
      <path
         style="opacity:1;fill:#97ddff;fill-opacity:1;stroke:none;stroke-width:7;stroke-linecap:round;stroke-miterlimit:4;stroke-dasharray:none;stroke-dashoffset:0;stroke-opacity:1"
         d="m 79.347748,619.19048 93.219342,0 c 15.7258,-0.82304 18.61638,5.95025 22.81669,10.88994 l 14.74763,18.59764 c 1.19974,1.50075 2.35846,2.05667 4.90331,2.04456 l 237.11359,0 c 11.80105,0 18.96301,7.94778 18.96301,18.963 l 0,262.72673 c 0,5.51441 -4.43941,9.95382 -9.95382,9.95382 l -390.818932,0 c -5.51443,0 -9.953839,-4.43941 -9.953839,-9.95382 l 0,-294.25886 c 0,-10.22939 7.685845,-18.96301 18.963019,-18.96301 z"
         id="path3350"
         inkscape:connector-curvature="0"
         sodipodi:nodetypes="sccccssssssss" />
      <path
         transform="matrix(1.2140243,0,0,0.24706809,-103.60917,748.00862)"
         sodipodi:nodetypes="sssssssss"
         inkscape:connector-curvature="0"
         id="path4224"
         d="m 141.2552,790.37375 325.97365,0 c 10.31873,0 16.58109,0.24525 16.58109,0.58514 l 0,7.48135 c 0,0.17016 -3.88178,0.30714 -8.70354,0.30714 l -341.72875,0 c -4.82177,0 -8.70355,-0.13698 -8.70355,-0.30714 l 0,-7.48135 c 0,-0.31565 6.72044,-0.58514 16.5811,-0.58514 z"
         style="opacity:0.38600003;fill:#000000;fill-opacity:1;stroke:none;stroke-width:7;stroke-linecap:round;stroke-miterlimit:4;stroke-dasharray:none;stroke-dashoffset:0;stroke-opacity:1;filter:url(#filter4328)" />
      <path
         transform="matrix(1.1261476,0,0,1.1261476,-76.873395,44.34049)"
         inkscape:original-d="m 141.2552,790.37375 325.97365,0 c 10.31873,0 16.58109,0.24525 16.58109,0.58514 l 0,7.48135 c 0,0.17016 -3.88178,0.30714 -8.70354,0.30714 l -341.72875,0 c -4.82177,0 -8.70355,-0.13698 -8.70355,-0.30714 l 0,-7.48135 c 0,-0.31565 6.72044,-0.58514 16.5811,-0.58514 z"
         inkscape:path-effect="#path-effect4318"
         style="opacity:0.75499998;fill:#000000;fill-opacity:1;stroke:none;stroke-width:7;stroke-linecap:round;stroke-miterlimit:4;stroke-dasharray:none;stroke-dashoffset:0;stroke-opacity:1;filter:url(#filter4220)"
         d="m 141.10975,789.54368 c 159.29009,-0.40661 166.71478,-0.49126 326.0187,-0.009 10.31973,0.0312 16.57003,0.30195 16.56153,0.63372 0.005,-0.18446 -0.015,7.66586 -0.0153,7.48294 2.2e-4,0.16482 -3.88067,0.35387 -8.70161,0.42509 -235.52679,3.47926 -106.15619,2.84739 -341.7124,-0.0243 -4.82154,-0.0588 -8.70285,-0.23742 -8.70267,-0.40301 -2.1e-4,0.19674 -0.0165,-7.67616 -0.0124,-7.48052 -0.006,-0.30814 6.7038,-0.59966 16.56415,-0.62483 z"
         id="path4160"
         inkscape:connector-curvature="0"
         sodipodi:nodetypes="sssssssss" />
      <path
         sodipodi:nodetypes="sssssssss"
         inkscape:connector-curvature="0"
         id="rect3347"
         d="m 79.347748,670.99327 372.800562,0 c 11.80105,0 18.96301,7.94779 18.96301,18.96301 l 0,242.45607 c 0,5.51441 -4.43941,9.95382 -9.95382,9.95382 l -390.818932,0 c -5.51443,0 -9.953839,-4.43941 -9.953839,-9.95382 l 0,-242.45607 c 0,-10.22939 7.685845,-18.96301 18.963019,-18.96301 z"
         style="opacity:1;fill:url(#linearGradient4158);fill-opacity:1;stroke:none;stroke-width:7;stroke-linecap:round;stroke-miterlimit:4;stroke-dasharray:none;stroke-dashoffset:0;stroke-opacity:1" />
      <rect
         y="919.31519"
         x="78.720749"
         height="3.1433148"
         width="374.05457"
         id="rect4358"
         style="opacity:1;fill:#a0defa;fill-opacity:1;stroke:none;stroke-width:7;stroke-linecap:round;stroke-miterlimit:4;stroke-dasharray:none;stroke-dashoffset:0;stroke-opacity:1" />
      <rect
         style="opacity:1;fill:#a0defa;fill-opacity:1;stroke:none;stroke-width:7;stroke-linecap:round;stroke-miterlimit:4;stroke-dasharray:none;stroke-dashoffset:0;stroke-opacity:1"
         id="rect4360"
         width="374.05457"
         height="3.1433148"
         x="78.720749"
         y="909.17987" />
      <rect
         y="899.04449"
         x="78.720749"
         height="3.1433148"
         width="374.05457"
         id="rect4362"
         style="opacity:1;fill:#a0defa;fill-opacity:1;stroke:none;stroke-width:7;stroke-linecap:round;stroke-miterlimit:4;stroke-dasharray:none;stroke-dashoffset:0;stroke-opacity:1" />
    </g>
  </g>
</svg>
