<svg width="435" height="338" viewBox="0 0 435 338" fill="none" xmlns="http://www.w3.org/2000/svg">
<circle cx="168.5" cy="168.5" r="168.5" fill="#F7B315"/>
<path d="M384.026 179.729L348.054 173.595L302.367 187.075L282.852 179.882C280.137 180.55 277.706 181.224 275.505 181.907C275.505 181.907 205.042 193.164 213.531 255.522L252.907 256.465C254.004 259.846 254.08 259.026 254.87 261.066L268.972 307.681H384.379L385.452 269.646L420.473 292.191C421.466 292.824 422.605 293.192 423.781 293.26C424.956 293.329 426.13 293.095 427.19 292.582C428.25 292.068 429.161 291.292 429.836 290.327C430.511 289.362 430.928 288.24 431.047 287.069C432.527 270.881 434.314 242.401 434.345 241.658C436.154 189.843 384.026 179.729 384.026 179.729Z" fill="#F7B315"/>
<path d="M256.664 267.775C256.49 267.781 256.319 267.727 256.18 267.622C256.04 267.518 255.941 267.369 255.897 267.2L248.881 239.863C248.83 239.666 248.86 239.456 248.963 239.281C249.067 239.106 249.236 238.978 249.433 238.928C249.63 238.877 249.84 238.906 250.015 239.01C250.191 239.113 250.318 239.282 250.369 239.48L257.408 266.825C257.433 266.922 257.439 267.024 257.425 267.124C257.411 267.224 257.377 267.32 257.326 267.407C257.275 267.494 257.207 267.57 257.126 267.63C257.045 267.691 256.954 267.735 256.856 267.76L256.664 267.775Z" fill="#121936"/>
<path d="M391.341 272.729C391.173 272.727 391.01 272.673 390.873 272.576L369.364 256.02C368.054 255.148 366.953 253.996 366.142 252.648C365.33 251.299 364.828 249.788 364.671 248.222L362.455 226.498C362.444 226.397 362.453 226.296 362.482 226.199C362.51 226.103 362.558 226.013 362.621 225.934C362.685 225.856 362.763 225.791 362.851 225.743C362.94 225.695 363.037 225.665 363.137 225.654C363.237 225.643 363.339 225.653 363.435 225.681C363.532 225.71 363.622 225.757 363.7 225.82C363.779 225.884 363.844 225.962 363.892 226.051C363.94 226.139 363.97 226.236 363.981 226.336L366.197 248.068C366.333 249.416 366.768 250.717 367.469 251.877C368.171 253.036 369.122 254.024 370.253 254.77L391.809 271.356C391.935 271.454 392.027 271.589 392.073 271.742C392.119 271.895 392.116 272.059 392.064 272.21C392.013 272.361 391.915 272.492 391.786 272.585C391.656 272.678 391.501 272.729 391.341 272.729Z" fill="#121936"/>
<path d="M332.511 107.126L321.875 106.758C319.397 106.679 316.949 107.325 314.834 108.618C312.718 109.911 311.026 111.794 309.966 114.036L312.021 83.8458C312.021 83.8458 301.386 89.9804 287.422 81.9441C287.422 81.9441 271.364 76.5764 266.334 89.0372C266.334 89.1599 266.334 89.2826 266.334 89.4053L263.267 134.28C262.14 150.69 273.351 165.006 288.764 167.583L292.352 185.396C294.998 198.547 308.095 207.097 321.492 204.405L322.044 204.298C335.402 201.606 346.82 191.507 344.166 178.356L333.661 134.747L336.122 134.832C339.792 134.948 343.359 133.608 346.044 131.103C348.729 128.599 350.314 125.135 350.454 121.466V120.446C350.554 117.082 349.32 113.815 347.022 111.356C344.724 108.898 341.548 107.446 338.185 107.318L332.511 107.126Z" fill="#FFAA89"/>
<path d="M288.932 168.104C288.932 168.104 315.878 164.899 318.769 154.639C318.769 154.639 322.412 168.955 291.432 181.899L288.932 168.104Z" fill="#FF6A48"/>
<path d="M335.67 143.443C335.779 140.5 336.47 137.607 337.702 134.931L325.992 134.54L335.67 143.443Z" fill="#121936"/>
<path d="M333.292 75.5949C333.292 75.5949 340.562 62.8503 321.085 53.6868C301.607 44.5233 294.399 61.7385 294.399 61.7385C294.399 61.7385 292.076 45.9803 268.481 53.6025C244.886 61.2247 265.82 90.4942 265.82 90.4942C265.981 89.9804 266.157 89.4973 266.341 89.0373C271.372 76.6148 287.429 81.9442 287.429 81.9442C301.393 90.0111 312.029 83.8459 312.029 83.8459L310.204 110.685C309.437 116.052 308.355 123.138 307.596 128.206C307.483 128.971 307.198 129.701 306.762 130.34C306.326 130.978 305.751 131.51 305.08 131.894C304.409 132.278 303.659 132.504 302.887 132.556C302.116 132.608 301.343 132.484 300.626 132.194L283.756 125.385C282.949 125.062 282.073 124.949 281.21 125.055L267.867 126.711C266.696 126.856 265.611 127.4 264.795 128.253C263.979 129.105 263.483 130.213 263.389 131.389L262.346 144.133C262.08 147.487 262.521 150.86 263.641 154.032C264.762 157.205 266.536 160.106 268.85 162.549C271.163 164.992 273.964 166.921 277.071 168.213C280.178 169.504 283.521 170.128 286.885 170.044L294.33 169.875C294.836 169.865 295.337 169.78 295.818 169.622L297.697 169.515C302.122 169.26 306.418 167.933 310.217 165.65C314.016 163.367 317.204 160.196 319.506 156.408C321.808 152.621 323.156 148.331 323.434 143.907C323.712 139.483 322.911 135.059 321.1 131.013C320.446 130.089 320.112 128.977 320.149 127.846L320.916 108.292C320.934 107.775 320.874 107.258 320.74 106.758C321.123 106.758 321.506 106.758 321.89 106.758L332.526 107.127L338.162 107.318C341.237 107.429 344.165 108.659 346.397 110.777C349.779 102.303 352.724 93.9066 353.59 88.7459C355.898 74.6977 333.292 75.5949 333.292 75.5949Z" fill="#191847"/>
<path d="M339.35 125.622C339.201 125.623 339.054 125.581 338.928 125.5L334.481 122.601C334.389 122.54 334.311 122.46 334.253 122.366C334.194 122.272 334.157 122.166 334.144 122.057C334.128 121.947 334.137 121.836 334.168 121.73C334.2 121.624 334.254 121.526 334.328 121.443L339.082 116.152C339.218 116 339.409 115.909 339.612 115.899C339.816 115.888 340.015 115.958 340.167 116.095C340.318 116.231 340.41 116.422 340.42 116.625C340.431 116.829 340.361 117.028 340.224 117.18L336.068 121.78L339.795 124.196C339.934 124.286 340.04 124.418 340.098 124.573C340.155 124.728 340.161 124.897 340.115 125.056C340.068 125.215 339.972 125.354 339.839 125.453C339.707 125.553 339.546 125.606 339.381 125.607L339.35 125.622Z" fill="#FF6A48"/>
<path d="M268.144 111.735C268.024 112.294 268.073 112.877 268.285 113.408C268.496 113.939 268.86 114.396 269.332 114.72C269.803 115.045 270.359 115.222 270.931 115.23C271.503 115.238 272.064 115.076 272.544 114.764C273.024 114.453 273.401 114.006 273.627 113.481C273.853 112.956 273.918 112.375 273.813 111.813C273.709 111.25 273.441 110.732 273.042 110.322C272.642 109.912 272.131 109.63 271.571 109.511C271.2 109.431 270.817 109.426 270.444 109.494C270.07 109.563 269.714 109.705 269.396 109.911C269.077 110.118 268.803 110.385 268.588 110.698C268.373 111.011 268.222 111.364 268.144 111.735Z" fill="#121936"/>
<path d="M288.878 112.364C288.883 112.936 289.057 113.494 289.379 113.967C289.701 114.44 290.156 114.807 290.686 115.021C291.216 115.235 291.798 115.288 292.359 115.171C292.919 115.054 293.431 114.774 293.832 114.366C294.233 113.958 294.504 113.44 294.61 112.877C294.716 112.315 294.653 111.734 294.429 111.208C294.205 110.682 293.829 110.234 293.35 109.921C292.872 109.608 292.311 109.444 291.739 109.45C291.359 109.453 290.984 109.531 290.635 109.679C290.286 109.827 289.969 110.043 289.704 110.313C289.438 110.584 289.228 110.905 289.087 111.256C288.945 111.608 288.874 111.985 288.878 112.364Z" fill="#121936"/>
<path d="M294.553 115.554C293.826 114.982 292.928 114.672 292.003 114.672C291.079 114.672 290.181 114.982 289.454 115.554" fill="#FFA386"/>
<path d="M289.454 116.344C289.335 116.345 289.218 116.318 289.112 116.266C289.006 116.214 288.913 116.138 288.84 116.045C288.717 115.884 288.662 115.681 288.688 115.479C288.714 115.278 288.818 115.095 288.978 114.971C289.837 114.285 290.904 113.911 292.004 113.911C293.103 113.911 294.17 114.285 295.029 114.971C295.163 115.106 295.242 115.285 295.252 115.475C295.261 115.665 295.199 115.851 295.079 115.998C294.959 116.145 294.788 116.242 294.6 116.271C294.413 116.299 294.221 116.257 294.062 116.152C293.468 115.694 292.736 115.448 291.985 115.455C291.235 115.462 290.508 115.721 289.922 116.19C289.787 116.291 289.622 116.345 289.454 116.344Z" fill="#FF6A48"/>
<path d="M268.281 117.011C268.175 117.012 268.07 116.99 267.972 116.948C267.874 116.906 267.786 116.843 267.714 116.765C267.577 116.616 267.505 116.418 267.514 116.215C267.522 116.013 267.611 115.822 267.76 115.684C268.514 114.936 269.513 114.487 270.573 114.418C271.633 114.348 272.682 114.665 273.526 115.308C273.673 115.437 273.766 115.617 273.784 115.811C273.803 116.005 273.748 116.2 273.628 116.354C273.509 116.509 273.335 116.612 273.142 116.643C272.95 116.673 272.752 116.63 272.591 116.52C272.032 116.1 271.339 115.897 270.642 115.951C269.945 116.005 269.291 116.311 268.803 116.811C268.658 116.938 268.473 117.009 268.281 117.011Z" fill="#FF6A48"/>
<path d="M268.711 121.581C263.343 121.581 259.026 116.604 259.026 110.485C259.026 104.366 263.374 99.3893 268.711 99.3893C274.048 99.3893 278.404 104.366 278.404 110.485C278.404 116.604 274.056 121.581 268.711 121.581ZM268.711 100.923C264.218 100.923 260.56 105.209 260.56 110.485C260.56 115.761 264.218 120.047 268.711 120.047C273.205 120.047 276.87 115.753 276.87 110.485C276.87 105.217 273.212 100.923 268.711 100.923Z" fill="white"/>
<path d="M280.167 105.708V115.761H274.945C274.303 115.761 273.686 116.016 273.232 116.471C272.778 116.925 272.522 117.541 272.522 118.184V119.281C272.524 120.541 273.026 121.749 273.917 122.64C274.808 123.531 276.016 124.033 277.277 124.035H282.023" fill="#FFAA89"/>
<path d="M282.023 124.786H277.276C275.813 124.784 274.41 124.202 273.375 123.167C272.34 122.132 271.757 120.729 271.755 119.265V118.169C271.755 117.75 271.838 117.335 271.998 116.948C272.158 116.561 272.393 116.209 272.69 115.913C272.986 115.617 273.337 115.382 273.724 115.222C274.111 115.061 274.526 114.979 274.945 114.979H279.4V105.708C279.4 105.505 279.481 105.31 279.625 105.166C279.769 105.022 279.964 104.941 280.167 104.941C280.371 104.941 280.566 105.022 280.709 105.166C280.853 105.31 280.934 105.505 280.934 105.708V116.528H274.945C274.506 116.528 274.085 116.702 273.774 117.013C273.463 117.324 273.289 117.745 273.289 118.184V119.281C273.291 120.338 273.712 121.351 274.459 122.098C275.206 122.845 276.219 123.266 277.276 123.268H282.023C282.226 123.268 282.421 123.349 282.565 123.493C282.709 123.637 282.79 123.832 282.79 124.035C282.79 124.238 282.709 124.433 282.565 124.577C282.421 124.721 282.226 124.802 282.023 124.802V124.786Z" fill="#FF6A48"/>
<path d="M292.092 120.883C286.724 120.883 282.407 115.907 282.407 109.787C282.407 103.668 286.747 98.6915 292.092 98.6915C297.437 98.6915 301.784 103.668 301.784 109.787C301.784 115.907 297.437 120.883 292.092 120.883ZM292.092 100.225C287.598 100.225 283.941 104.512 283.941 109.787C283.941 115.063 287.598 119.35 292.092 119.35C296.585 119.35 300.251 115.055 300.251 109.787C300.251 104.519 296.593 100.225 292.092 100.225Z" fill="white"/>
<path d="M299.875 99.4276C298.841 99.46 297.813 99.2772 296.854 98.8909C295.811 98.5535 294.752 98.2391 293.832 98.0013C292.912 97.7636 291.831 97.5182 290.765 97.3035C289.737 97.1842 288.746 96.847 287.859 96.3143C287.146 95.7699 287.092 94.727 288.327 93.7838C289.561 92.8406 292.161 92.2042 295.228 93.017C298.295 93.8298 300.243 95.6702 300.795 97.0428C301.347 98.4154 300.772 99.2973 299.875 99.4276Z" fill="#121936"/>
<path d="M264.593 96.3067C265.384 96.4989 266.21 96.4989 267.001 96.3067C267.845 96.184 268.704 96.0843 269.447 96.023C270.191 95.9616 271.058 95.931 271.917 95.9233C272.726 95.9843 273.539 95.8502 274.286 95.5322C274.907 95.1718 275.099 94.267 274.286 93.2317C273.614 92.5476 272.793 92.0273 271.888 91.7108C270.982 91.3944 270.016 91.2903 269.064 91.4067C266.595 91.6138 264.846 92.9404 264.241 94.0292C263.635 95.1181 263.919 96.046 264.593 96.3067Z" fill="#121936"/>
<path d="M283.173 109.626H279.216C279.013 109.626 278.818 109.546 278.674 109.402C278.53 109.258 278.45 109.063 278.45 108.86C278.45 108.656 278.53 108.461 278.674 108.317C278.818 108.174 279.013 108.093 279.216 108.093H283.173C283.377 108.093 283.572 108.174 283.715 108.317C283.859 108.461 283.94 108.656 283.94 108.86C283.94 109.063 283.859 109.258 283.715 109.402C283.572 109.546 283.377 109.626 283.173 109.626Z" fill="white"/>
<path d="M301.018 109.243C300.814 109.253 300.615 109.182 300.464 109.046C300.313 108.909 300.223 108.718 300.212 108.515C300.202 108.311 300.273 108.112 300.41 107.961C300.547 107.81 300.738 107.72 300.941 107.709L324.459 105.493C324.56 105.484 324.662 105.494 324.758 105.524C324.855 105.553 324.945 105.602 325.023 105.666C325.101 105.731 325.165 105.81 325.213 105.899C325.26 105.989 325.289 106.087 325.299 106.187C325.309 106.288 325.298 106.39 325.268 106.486C325.239 106.583 325.19 106.673 325.126 106.751C325.061 106.829 324.982 106.893 324.893 106.941C324.804 106.988 324.706 107.017 324.605 107.027L301.125 109.243H301.018Z" fill="white"/>
<path d="M288.234 138.336H288.15L278.948 138.221C278.745 138.221 278.55 138.14 278.406 137.997C278.262 137.853 278.181 137.658 278.181 137.454C278.181 137.251 278.262 137.056 278.406 136.912C278.55 136.768 278.745 136.687 278.948 136.687L288.15 136.803C289.409 136.81 290.634 136.393 291.627 135.618C292.619 134.843 293.32 133.755 293.618 132.531L295.105 132.876C294.735 134.423 293.857 135.802 292.612 136.791C291.366 137.781 289.825 138.325 288.234 138.336Z" fill="#FF6A48"/>
<path d="M289.07 171.202L277.277 181.408L279.033 205.517C279.052 205.795 279.149 206.062 279.312 206.287C279.476 206.513 279.699 206.688 279.958 206.792C280.216 206.897 280.498 206.927 280.772 206.879C281.047 206.832 281.302 206.708 281.509 206.522L303.203 187.19L289.07 171.202Z" fill="white"/>
<path d="M340.815 164.837L302.221 187.075L317.711 213.086C317.883 213.366 318.113 213.606 318.385 213.79C318.658 213.973 318.966 214.097 319.29 214.151C319.614 214.206 319.946 214.19 320.264 214.105C320.581 214.021 320.877 213.869 321.131 213.661L358.659 181.876L340.815 164.837Z" fill="white"/>
<path d="M284.454 203.899L294.661 224.657L316.768 211.491L302.613 187.719L284.454 203.899Z" fill="#E71F24"/>
<path d="M165.957 97.4876L142.086 97.6487H110.915L110.984 86.0927C110.994 84.5681 110.863 83.0458 110.593 81.5454C106.429 58.6942 72.9725 58.5408 68.571 81.3691C68.2747 82.9003 68.1258 84.4564 68.1262 86.016V99.9108L68.1876 110.278C68.2489 121.228 61.1788 130.591 52 132.631C52.733 132.715 53.4709 132.749 54.2084 132.731C55.8955 132.777 57.2374 132.731 57.2374 132.731L146.281 132.846C157.246 132.769 166.08 122.662 166.011 110.271L165.957 97.4876Z" fill="#191847"/>
<path d="M238.36 97.3572C238.36 90.6183 236.299 84.0407 232.453 78.5072C228.607 72.9737 223.16 68.7492 216.843 66.4007C213.713 64.9717 210.315 64.2242 206.875 64.2076L132.854 64.2919H92.5112C91.9744 64.2919 91.4376 64.2919 90.9085 64.3456H89.5359V64.384L89.8426 64.43C95.4458 65.1825 100.613 67.8585 104.461 72.0003C108.309 76.1421 110.599 81.4922 110.938 87.1355V317.182C110.974 322.566 113.146 327.717 116.976 331.502C120.806 335.287 125.981 337.398 131.366 337.372H238.322V244.587H238.36V97.3572Z" fill="white"/>
<path d="M219.842 188.302H132.991C132.788 188.302 132.593 188.221 132.449 188.078C132.305 187.934 132.225 187.739 132.225 187.535C132.225 187.332 132.305 187.137 132.449 186.993C132.593 186.849 132.788 186.769 132.991 186.769H219.842C220.045 186.769 220.24 186.849 220.384 186.993C220.528 187.137 220.608 187.332 220.608 187.535C220.608 187.739 220.528 187.934 220.384 188.078C220.24 188.221 220.045 188.302 219.842 188.302Z" fill="#121936"/>
<path d="M219.842 169.364H132.991C132.788 169.364 132.593 169.283 132.449 169.139C132.305 168.995 132.225 168.8 132.225 168.597C132.225 168.394 132.305 168.198 132.449 168.055C132.593 167.911 132.788 167.83 132.991 167.83H219.842C220.045 167.83 220.24 167.911 220.384 168.055C220.528 168.198 220.608 168.394 220.608 168.597C220.608 168.8 220.528 168.995 220.384 169.139C220.24 169.283 220.045 169.364 219.842 169.364Z" fill="#121936"/>
<path d="M219.842 150.425H132.991C132.788 150.425 132.593 150.344 132.449 150.201C132.305 150.057 132.225 149.862 132.225 149.658C132.225 149.455 132.305 149.26 132.449 149.116C132.593 148.972 132.788 148.892 132.991 148.892H219.842C220.045 148.892 220.24 148.972 220.384 149.116C220.528 149.26 220.608 149.455 220.608 149.658C220.608 149.862 220.528 150.057 220.384 150.201C220.24 150.344 220.045 150.425 219.842 150.425Z" fill="#121936"/>
<path d="M219.842 131.487H132.991C132.788 131.487 132.593 131.406 132.449 131.262C132.305 131.118 132.225 130.923 132.225 130.72C132.225 130.517 132.305 130.322 132.449 130.178C132.593 130.034 132.788 129.953 132.991 129.953H219.842C220.045 129.953 220.24 130.034 220.384 130.178C220.528 130.322 220.608 130.517 220.608 130.72C220.608 130.923 220.528 131.118 220.384 131.262C220.24 131.406 220.045 131.487 219.842 131.487Z" fill="#121936"/>
<path d="M219.842 112.548H132.991C132.788 112.548 132.593 112.467 132.449 112.324C132.305 112.18 132.225 111.985 132.225 111.781C132.225 111.578 132.305 111.383 132.449 111.239C132.593 111.095 132.788 111.015 132.991 111.015H219.842C220.045 111.015 220.24 111.095 220.384 111.239C220.528 111.383 220.608 111.578 220.608 111.781C220.608 111.985 220.528 112.18 220.384 112.324C220.24 112.467 220.045 112.548 219.842 112.548Z" fill="#121936"/>
<path d="M219.842 93.6098H132.991C132.788 93.6098 132.593 93.529 132.449 93.3852C132.305 93.2414 132.225 93.0464 132.225 92.843C132.225 92.6396 132.305 92.4446 132.449 92.3008C132.593 92.157 132.788 92.0762 132.991 92.0762H219.842C220.045 92.0762 220.24 92.157 220.384 92.3008C220.528 92.4446 220.608 92.6396 220.608 92.843C220.608 93.0464 220.528 93.2414 220.384 93.3852C220.24 93.529 220.045 93.6098 219.842 93.6098Z" fill="#121936"/>
<path d="M219.842 206.315H132.991C132.788 206.315 132.593 206.234 132.449 206.09C132.305 205.946 132.225 205.751 132.225 205.548C132.225 205.344 132.305 205.149 132.449 205.006C132.593 204.862 132.788 204.781 132.991 204.781H219.842C220.045 204.781 220.24 204.862 220.384 205.006C220.528 205.149 220.608 205.344 220.608 205.548C220.608 205.751 220.528 205.946 220.384 206.09C220.24 206.234 220.045 206.315 219.842 206.315Z" fill="#121936"/>
<path d="M219.842 224.32H132.991C132.788 224.32 132.593 224.239 132.449 224.095C132.305 223.951 132.225 223.756 132.225 223.553C132.225 223.349 132.305 223.154 132.449 223.011C132.593 222.867 132.788 222.786 132.991 222.786H219.842C220.045 222.786 220.24 222.867 220.384 223.011C220.528 223.154 220.608 223.349 220.608 223.553C220.608 223.756 220.528 223.951 220.384 224.095C220.24 224.239 220.045 224.32 219.842 224.32Z" fill="#121936"/>
<path d="M219.842 241.174H132.991C132.788 241.174 132.593 241.094 132.449 240.95C132.305 240.806 132.225 240.611 132.225 240.408C132.225 240.204 132.305 240.009 132.449 239.865C132.593 239.722 132.788 239.641 132.991 239.641H219.842C220.045 239.641 220.24 239.722 220.384 239.865C220.528 240.009 220.608 240.204 220.608 240.408C220.608 240.611 220.528 240.806 220.384 240.95C220.24 241.094 220.045 241.174 219.842 241.174Z" fill="#121936"/>
<path d="M201.1 277.499V311.384C201.1 317.825 203.659 324.002 208.213 328.557C212.768 333.111 218.945 335.67 225.386 335.67H229.895C237.628 335.672 245.045 332.604 250.518 327.14C255.99 321.676 259.07 314.264 259.08 306.531C259.079 303.832 259.609 301.161 260.641 298.668C261.673 296.175 263.187 293.91 265.094 292.002C267.002 290.094 269.267 288.581 271.76 287.549C274.253 286.517 276.925 285.986 279.623 285.987H288.058C289.937 285.985 291.804 286.288 293.587 286.885V285.987H293.786V273.205C293.786 268.844 292.054 264.662 288.971 261.579C285.887 258.496 281.706 256.764 277.345 256.764H181.293C186.633 256.995 191.676 259.283 195.368 263.147C199.059 267.012 201.113 272.154 201.1 277.499Z" fill="white"/>
<path d="M406.271 315.472L406.095 302.39C406.095 300.229 405.669 298.09 404.842 296.095C404.014 294.099 402.802 292.286 401.274 290.759C399.746 289.232 397.931 288.021 395.935 287.196C393.938 286.371 391.799 285.947 389.639 285.949H293.594V286.846C297.071 288.006 300.096 290.231 302.238 293.205C304.381 296.179 305.534 299.752 305.534 303.417V311.676C305.542 318.494 308.256 325.03 313.08 329.848C317.904 334.666 324.443 337.372 331.261 337.372H424.552C419.457 336.369 414.86 333.646 411.533 329.66C408.205 325.673 406.347 320.664 406.271 315.472Z" fill="white"/>
<path d="M305.534 311.676V303.417C305.534 298.784 303.693 294.341 300.417 291.065C297.142 287.789 292.698 285.949 288.066 285.949H279.631C276.933 285.948 274.261 286.479 271.768 287.511C269.275 288.543 267.01 290.056 265.102 291.964C263.194 293.872 261.681 296.137 260.649 298.629C259.617 301.122 259.086 303.794 259.087 306.492C259.077 314.225 255.998 321.638 250.525 327.102C245.053 332.565 237.635 335.633 229.902 335.631H225.386C218.945 335.631 212.768 333.073 208.213 328.518C203.659 323.964 201.1 317.787 201.1 311.346V277.499C201.106 272.16 199.048 267.025 195.357 263.167C191.666 259.309 186.628 257.026 181.294 256.795C180.987 256.795 180.68 256.795 180.366 256.795C177.039 256.795 173.746 257.45 170.673 258.724C167.6 259.999 164.809 261.866 162.459 264.22C160.108 266.574 158.245 269.368 156.976 272.442C155.706 275.517 155.056 278.812 155.061 282.138V309.882C155.061 313.273 154.393 316.631 153.095 319.764C151.797 322.897 149.894 325.743 147.496 328.141C145.097 330.539 142.25 332.44 139.117 333.737C135.984 335.034 132.625 335.701 129.234 335.7C125.035 335.706 120.961 334.269 117.693 331.631C114.426 328.993 112.163 325.314 111.283 321.207C113.047 330.639 121.129 337.395 131.22 337.395H331.261C324.439 337.395 317.896 334.686 313.072 329.863C308.247 325.039 305.536 318.498 305.534 311.676Z" fill="#191847"/>
<path d="M134.502 215.164C130.868 207.381 122.563 213.093 117.149 215.854C114.695 217.388 112.441 218.684 110.317 219.918C110.731 217.004 111.137 214.044 110.516 211.1C110.462 210.614 110.306 210.146 110.059 209.724C109.812 209.303 109.479 208.938 109.082 208.654C108.761 208.496 108.407 208.418 108.049 208.426C107.692 208.434 107.341 208.528 107.027 208.7C106.418 209.046 105.88 209.504 105.44 210.049C101.069 214.88 91.2461 231.443 91.2461 231.443C89.3702 235.513 88.124 239.844 87.55 244.288C85.8554 257.094 97.5187 268.826 109.788 266.249C111.149 266.018 112.444 265.495 113.584 264.716L134.203 249.916C138.145 247.409 138.582 241.121 134.917 241.059C138.421 240.016 141.818 237.547 139.793 233.169C138.95 230.638 136.995 230.27 134.909 230.592C138.083 229.557 140.944 227.893 139.51 224.151C138.536 219.903 135.101 219.765 131.888 220.532C133.966 219.55 135.545 217.955 134.502 215.164Z" fill="#FFA386"/>
<path d="M101.468 225.869C101.297 225.872 101.131 225.818 100.994 225.715C100.858 225.613 100.76 225.468 100.715 225.304C100.67 225.139 100.681 224.965 100.747 224.807C100.812 224.65 100.928 224.519 101.077 224.435L112.226 217.94C112.401 217.848 112.605 217.828 112.795 217.883C112.985 217.938 113.146 218.064 113.245 218.235C113.344 218.407 113.373 218.61 113.326 218.802C113.279 218.994 113.16 219.16 112.993 219.266L101.851 225.761C101.735 225.83 101.603 225.867 101.468 225.869Z" fill="#FF6A48"/>
<path d="M123.851 225.869C123.718 225.869 123.588 225.834 123.472 225.768C123.356 225.702 123.26 225.607 123.192 225.493C123.088 225.319 123.056 225.111 123.105 224.914C123.154 224.717 123.279 224.547 123.453 224.442C124.22 223.975 131.121 219.841 132.555 219.45C132.751 219.396 132.961 219.423 133.138 219.523C133.314 219.624 133.444 219.791 133.498 219.987C133.552 220.183 133.526 220.393 133.425 220.57C133.324 220.747 133.158 220.876 132.961 220.93C132.018 221.183 127.11 223.998 124.243 225.754C124.125 225.827 123.99 225.866 123.851 225.869Z" fill="#FF6A48"/>
<path d="M127.992 235.546C127.857 235.546 127.724 235.511 127.607 235.444C127.489 235.377 127.392 235.279 127.325 235.162C127.225 234.986 127.198 234.778 127.252 234.583C127.305 234.387 127.433 234.221 127.608 234.12L134.617 230.055C134.792 229.964 134.996 229.943 135.186 229.998C135.376 230.054 135.537 230.18 135.636 230.351C135.735 230.522 135.764 230.725 135.717 230.917C135.67 231.109 135.551 231.276 135.384 231.382L128.368 235.446C128.253 235.511 128.123 235.545 127.992 235.546Z" fill="#FF6A48"/>
<path d="M130.078 244.587C129.941 244.586 129.807 244.548 129.69 244.478C129.573 244.408 129.476 244.308 129.411 244.188C129.314 244.011 129.292 243.803 129.348 243.609C129.404 243.415 129.534 243.251 129.71 243.153L133.544 241.044C133.632 240.995 133.73 240.965 133.83 240.954C133.93 240.943 134.032 240.952 134.129 240.981C134.226 241.009 134.316 241.057 134.395 241.12C134.473 241.184 134.538 241.262 134.587 241.351C134.682 241.529 134.704 241.738 134.646 241.931C134.589 242.125 134.457 242.289 134.28 242.386L130.446 244.495C130.333 244.556 130.206 244.587 130.078 244.587Z" fill="#FF6A48"/>
<path d="M274.355 172.797L279.063 176.831C279.644 177.352 279.993 178.083 280.035 178.863C280.076 179.642 279.807 180.406 279.286 180.987L275.061 185.91C274.565 186.512 273.851 186.893 273.076 186.97C272.3 187.048 271.525 186.816 270.92 186.324L266.219 182.29C265.639 181.768 265.29 181.038 265.248 180.258C265.206 179.479 265.476 178.715 265.997 178.134L270.222 173.211C270.716 172.61 271.429 172.229 272.203 172.151C272.978 172.074 273.751 172.306 274.355 172.797Z" fill="#E71F24"/>
<path d="M268.286 175.523L224.674 226.371L233.736 234.144L277.349 183.296L268.286 175.523Z" fill="#FFD066"/>
<path d="M224.773 226.428L233.668 234.058C233.706 234.058 233.844 234.212 233.668 234.189L219.689 241.397L224.681 226.482C224.687 226.464 224.7 226.449 224.717 226.439C224.734 226.429 224.754 226.425 224.773 226.428Z" fill="#FFAA89"/>
<path d="M221.482 236.052L224.665 238.782C224.665 238.782 224.726 238.836 224.665 238.836L219.665 241.412L221.452 236.044L221.482 236.052Z" fill="#191847"/>
<path d="M265.061 192.658C264.987 192.66 264.914 192.641 264.851 192.603C264.788 192.564 264.738 192.507 264.706 192.44C264.675 192.373 264.665 192.298 264.676 192.225C264.687 192.152 264.72 192.084 264.77 192.029L271.042 184.713C271.075 184.675 271.115 184.644 271.16 184.621C271.205 184.598 271.254 184.584 271.304 184.58C271.354 184.576 271.405 184.582 271.452 184.598C271.5 184.614 271.545 184.639 271.583 184.671C271.621 184.704 271.653 184.744 271.676 184.789C271.698 184.834 271.712 184.883 271.716 184.933C271.72 184.983 271.714 185.034 271.698 185.081C271.683 185.129 271.658 185.174 271.625 185.212L265.353 192.527C265.316 192.568 265.271 192.601 265.22 192.623C265.17 192.645 265.116 192.657 265.061 192.658Z" fill="white"/>
<path d="M249.648 203.355C249.558 203.355 249.471 203.322 249.402 203.263C249.325 203.196 249.277 203.102 249.269 203C249.26 202.898 249.292 202.797 249.356 202.718L267.446 181.631C267.478 181.592 267.518 181.561 267.563 181.538C267.608 181.515 267.657 181.502 267.707 181.498C267.758 181.494 267.808 181.5 267.856 181.515C267.904 181.531 267.948 181.556 267.986 181.589C268.025 181.621 268.056 181.661 268.079 181.706C268.102 181.751 268.115 181.8 268.119 181.85C268.123 181.9 268.117 181.951 268.102 181.999C268.086 182.047 268.061 182.091 268.029 182.129L249.939 203.217C249.904 203.26 249.86 203.295 249.809 203.319C249.759 203.342 249.704 203.355 249.648 203.355Z" fill="white"/>
<path d="M384.593 264.294L307.213 213.147L289.277 199.099C284.258 195.166 278.229 192.733 271.886 192.083L251.335 189.974C248.386 189.675 245.413 190.237 242.777 191.592L233.023 196.615C232.262 197.006 231.632 197.612 231.211 198.357C230.79 199.103 230.596 199.955 230.654 200.809L230.73 201.952L229.963 202.312C228.959 202.791 228.11 203.545 227.517 204.487C226.924 205.429 226.61 206.52 226.612 207.634V211.667L225.938 213.247C225.486 214.306 225.345 215.472 225.531 216.608C225.717 217.745 226.223 218.805 226.988 219.665L242.141 236.666C242.36 236.91 242.628 237.107 242.927 237.244C243.226 237.381 243.551 237.454 243.879 237.46C244.208 237.466 244.535 237.403 244.839 237.277C245.142 237.151 245.417 236.964 245.645 236.727C246.796 235.531 247.471 233.956 247.545 232.297C247.618 230.639 247.085 229.01 246.044 227.717L241.358 221.897L257.048 231.19C259.629 232.715 262.536 233.606 265.529 233.79L275.206 234.388L285.213 245.806L345.255 318.202C352.045 325.543 361.217 330.24 371.143 331.46C390.252 333.814 408.426 322.427 415.457 304.498L420.948 292.482L384.593 264.294Z" fill="#FFAA89"/>
<path d="M230.983 203.048C230.78 203.079 230.573 203.027 230.407 202.905C230.242 202.783 230.132 202.6 230.102 202.396C230.071 202.193 230.123 201.986 230.245 201.82C230.367 201.655 230.55 201.545 230.753 201.514L242.409 197.811C242.505 197.78 242.606 197.768 242.707 197.777C242.808 197.785 242.906 197.814 242.995 197.86C243.085 197.906 243.165 197.97 243.23 198.047C243.295 198.124 243.345 198.213 243.375 198.309C243.406 198.405 243.417 198.507 243.409 198.607C243.401 198.708 243.372 198.806 243.326 198.895C243.28 198.985 243.216 199.065 243.139 199.13C243.062 199.195 242.973 199.245 242.877 199.275L231.221 202.994C231.145 203.023 231.065 203.042 230.983 203.048Z" fill="#FF6A48"/>
<path d="M227.073 212.296C226.972 212.309 226.87 212.301 226.772 212.274C226.674 212.247 226.583 212.201 226.503 212.139C226.423 212.077 226.355 211.999 226.305 211.911C226.255 211.823 226.223 211.726 226.21 211.625C226.198 211.524 226.205 211.422 226.232 211.324C226.259 211.226 226.305 211.135 226.367 211.055C226.429 210.975 226.507 210.907 226.595 210.857C226.683 210.807 226.781 210.775 226.881 210.762L241.374 207.074C241.472 207.049 241.573 207.044 241.673 207.059C241.773 207.073 241.869 207.107 241.955 207.159C242.042 207.21 242.117 207.279 242.177 207.359C242.237 207.44 242.281 207.532 242.306 207.63C242.33 207.727 242.336 207.829 242.321 207.929C242.306 208.028 242.272 208.124 242.221 208.211C242.169 208.297 242.101 208.373 242.02 208.433C241.939 208.493 241.848 208.537 241.75 208.561L227.265 212.25L227.073 212.296Z" fill="#FF6A48"/>
<path d="M241.389 222.633C241.281 222.634 241.174 222.611 241.075 222.568C240.976 222.524 240.887 222.46 240.814 222.38L237.893 219.113C237.77 218.96 237.71 218.765 237.727 218.57C237.743 218.374 237.834 218.192 237.98 218.061C238.127 217.93 238.318 217.861 238.514 217.867C238.71 217.873 238.897 217.954 239.035 218.093L241.957 221.36C242.054 221.47 242.117 221.606 242.139 221.751C242.161 221.896 242.141 222.044 242.081 222.178C242.021 222.312 241.925 222.426 241.802 222.507C241.679 222.587 241.536 222.631 241.389 222.633Z" fill="#FF6A48"/>
<path d="M275.237 235.124C275.033 235.124 274.838 235.043 274.694 234.9C274.551 234.756 274.47 234.561 274.47 234.357C274.47 234.154 274.551 233.959 274.694 233.815C274.838 233.671 275.033 233.591 275.237 233.591L286.662 233.138C286.866 233.138 287.061 233.219 287.204 233.363C287.348 233.507 287.429 233.702 287.429 233.905C287.429 234.108 287.348 234.303 287.204 234.447C287.061 234.591 286.866 234.672 286.662 234.672L275.237 235.124Z" fill="#FF6A48"/>
</svg>
