<?xml version="1.0" standalone="no"?>
<!DOCTYPE svg PUBLIC "-//W3C//DTD SVG 20010904//EN"
 "http://www.w3.org/TR/2001/REC-SVG-20010904/DTD/svg10.dtd">
<svg version="1.0" xmlns="http://www.w3.org/2000/svg"
 width="1001.000000pt" height="1001.000000pt" viewBox="0 0 1001.000000 1001.000000"
 preserveAspectRatio="xMidYMid meet">

<g transform="translate(0.000000,1001.000000) scale(0.100000,-0.100000)"
fill="#000000" stroke="none">
<path d="M2670 8790 l0 -220 -250 0 -250 0 0 -3780 0 -3780 2835 0 2835 0 0
3780 0 3780 -250 0 -250 0 0 220 0 220 -85 0 -85 0 0 -220 0 -220 -165 0 -165
0 0 220 0 220 -85 0 -85 0 0 -220 0 -220 -165 0 -165 0 0 220 0 220 -85 0 -85
0 0 -220 0 -220 -165 0 -165 0 0 220 0 220 -85 0 -85 0 0 -220 0 -220 -165 0
-165 0 0 220 0 220 -85 0 -85 0 0 -220 0 -220 -165 0 -165 0 0 220 0 220 -85
0 -85 0 0 -220 0 -220 -165 0 -165 0 0 220 0 220 -85 0 -85 0 0 -220 0 -220
-165 0 -165 0 0 220 0 220 -85 0 -85 0 0 -220 0 -220 -165 0 -165 0 0 220 0
220 -85 0 -85 0 0 -220 0 -220 -165 0 -165 0 0 220 0 220 -85 0 -85 0 0 -220z
m0 -505 l0 -115 85 0 85 0 0 115 0 115 165 0 165 0 0 -115 0 -115 85 0 85 0 0
115 0 115 165 0 165 0 0 -115 0 -115 85 0 85 0 0 115 0 115 165 0 165 0 0
-115 0 -115 85 0 85 0 0 115 0 115 165 0 165 0 0 -115 0 -115 85 0 85 0 0 115
0 115 165 0 165 0 0 -115 0 -115 85 0 85 0 0 115 0 115 165 0 165 0 0 -115 0
-115 85 0 85 0 0 115 0 115 165 0 165 0 0 -115 0 -115 85 0 85 0 0 115 0 115
165 0 165 0 0 -115 0 -115 85 0 85 0 0 115 0 115 165 0 165 0 0 -115 0 -115
85 0 85 0 0 115 0 115 165 0 165 0 0 -3610 0 -3610 -2665 0 -2665 0 0 3610 0
3610 165 0 165 0 0 -115z"/>
<path d="M6170 5521 l0 -2158 248 -521 c136 -287 250 -522 253 -522 3 0 117
233 252 518 l247 518 0 2162 0 2162 -500 0 -500 0 0 -2159z m830 1824 l0 -165
-330 0 -330 0 0 165 0 165 330 0 330 0 0 -165z m0 -2105 l0 -1770 -330 0 -330
0 0 1770 0 1770 330 0 330 0 0 -1770z m-50 -1944 c0 -2 -63 -136 -140 -297
l-139 -293 -39 85 c-22 46 -68 143 -102 214 -34 72 -80 167 -101 213 l-38 82
279 0 c154 0 280 -2 280 -4z"/>
<path d="M2670 3155 l0 -645 1500 0 1500 0 0 645 0 645 -1500 0 -1500 0 0
-645z"/>
</g>
</svg>
