<svg xmlns="http://www.w3.org/2000/svg" xmlns:xlink="http://www.w3.org/1999/xlink" viewBox="0 0 64 64"><defs><style>.cls-1{fill:#f2f2f2;fill-rule:evenodd;}.cls-2{fill:#9da4aa;}.cls-3{fill:url(#linear-gradient);}.cls-4{fill:url(#linear-gradient-2);}.cls-5{fill:#4a5055;}.cls-6{fill:url(#linear-gradient-3);}.cls-7{fill:url(#linear-gradient-4);}.cls-8{fill:url(#linear-gradient-5);}.cls-9{fill:#f4bd4b;}.cls-10{fill:none;stroke:#0a6ed1;stroke-miterlimit:10;stroke-width:0.6px;}</style><linearGradient id="linear-gradient" x1="17.54" y1="32.43" x2="9.1" y2="27.55" gradientUnits="userSpaceOnUse"><stop offset="0.08" stop-color="#72b5f8"/><stop offset="0.89" stop-color="#4686d3"/></linearGradient><linearGradient id="linear-gradient-2" x1="36.79" y1="52.23" x2="29.95" y2="48.28" gradientUnits="userSpaceOnUse"><stop offset="0.01" stop-color="#72b5f8"/><stop offset="0.89" stop-color="#4686d3"/></linearGradient><linearGradient id="linear-gradient-3" x1="38.42" y1="40.51" x2="23.61" y2="25.7" gradientUnits="userSpaceOnUse"><stop offset="0.38" stop-color="#fff"/><stop offset="0.67" stop-color="#f0f0f0"/><stop offset="1" stop-color="#d9d9d9"/></linearGradient><linearGradient id="linear-gradient-4" x1="57.04" y1="21.82" x2="44" y2="8.78" gradientUnits="userSpaceOnUse"><stop offset="0.39" stop-color="#72b5f8"/><stop offset="1" stop-color="#4686d3"/></linearGradient><linearGradient id="linear-gradient-5" x1="50.11" y1="20.14" x2="43.04" y2="16.05" gradientUnits="userSpaceOnUse"><stop offset="0.47" stop-color="#fff"/><stop offset="0.65" stop-color="#f1f1f1"/><stop offset="1" stop-color="#d9d9d9"/></linearGradient></defs><g id="MISSION"><path id="BG" class="cls-1" d="M48.37,37.56c0-1.85,1.59-3.16,3.71-3.2,6.56-.14,11.86-5.48,11.21-11.93-.57-5.6-5.7-9.76-11.56-9.76H17.16c-5.85,0-11,4.16-11.55,9.76A11,11,0,0,0,16.82,34.36h0a2.38,2.38,0,0,1,2.42,2.33v.05a2.38,2.38,0,0,1-2.42,2.33H7.24A6.47,6.47,0,0,0,.82,43.81,6.2,6.2,0,0,0,7,51.33H46a6.46,6.46,0,0,0,6.47-5c.54-2.75-1.2-4.82-3.13-6.5A3.05,3.05,0,0,1,48.37,37.56Z"/><rect class="cls-2" x="13.39" y="45.25" width="1.57" height="9.4" rx="0.78" transform="translate(39.47 4.61) rotate(45)"/><rect class="cls-2" x="9.22" y="45.59" width="1.57" height="7.72" rx="0.78" transform="translate(37.9 7.41) rotate(45)"/><rect class="cls-2" x="12.41" y="50.5" width="1.57" height="10.22" rx="0.78" transform="translate(43.18 6.96) rotate(45)"/><path class="cls-3" d="M21.46,23.81c-2.95,0-10.88,1.08-16.81,11.45a.61.61,0,0,0,.84.83c2.36-1.43,6.26-3.3,8.58-1.67a.6.6,0,0,0,.82-.15L22,24.78A.6.6,0,0,0,21.46,23.81Z"/><path class="cls-4" d="M40.07,42.41c0,3-1.09,10.88-11.45,16.81a.61.61,0,0,1-.83-.84c1.43-2.35,3.29-6.26,1.66-8.58A.6.6,0,0,1,29.6,49l9.49-7.07A.61.61,0,0,1,40.07,42.41Z"/><path class="cls-5" d="M17,41.1h8.59a.53.53,0,0,1,.53.53v1.67a1.33,1.33,0,0,1-1.33,1.33h-7a1.33,1.33,0,0,1-1.33-1.33V41.62A.53.53,0,0,1,17,41.1Z" transform="translate(36.53 -2.49) rotate(45)"/><path class="cls-6" d="M27.28,47.05a5.09,5.09,0,0,1-3.59-1.42l-5.2-5.2a5.48,5.48,0,0,1-.71-6.51c0-.06,4.37-6.76,13.83-16.22.59-.58,1.19-1.16,1.8-1.71l.18-.17L48.28,30.51l-.16.18c-.61.69-1.16,1.29-1.7,1.82a142.1,142.1,0,0,1-16.3,13.68,4.94,4.94,0,0,1-2.84.86Z"/><path class="cls-5" d="M33.58,16.17,47.93,30.52c-.56.65-1.13,1.26-1.69,1.82A140.1,140.1,0,0,1,30,46a4.73,4.73,0,0,1-2.69.81,4.85,4.85,0,0,1-3.41-1.34l-5.2-5.21A5.21,5.21,0,0,1,18,34.06s4.25-6.63,13.8-16.18c.58-.58,1.18-1.15,1.79-1.71m0-.69-.35.32c-.63.57-1.23,1.15-1.81,1.73C22,27,17.62,33.72,17.57,33.79a5.75,5.75,0,0,0,.74,6.82l5.21,5.2a5.44,5.44,0,0,0,6.74.59A141.47,141.47,0,0,0,46.6,32.69c.53-.54,1.11-1.15,1.71-1.84l.31-.35-.33-.33L33.93,15.82l-.34-.34Z"/><path class="cls-7" d="M33.23,16.17l.19-.17C40.84,9.22,50.12,4.3,55.5,4.3a4.48,4.48,0,0,1,3.26,1.08C62.35,9,54.9,23,48.13,30.7l-.17.2Z"/><path class="cls-5" d="M55.5,4.55a4.23,4.23,0,0,1,3.09,1c3.3,3.31-3.64,17-10.65,25L33.59,16.18C41.05,9.36,50.33,4.55,55.5,4.55m0-.5c-5.43,0-14.79,5-22.25,11.76l-.39.35.37.37L47.59,30.89l.38.38.35-.4c6.83-7.78,14.3-22,10.62-25.66A4.68,4.68,0,0,0,55.5,4.05Z"/><circle class="cls-8" cx="46.23" cy="17.9" r="3.15"/><path class="cls-9" d="M54.33,45.58c.23-.43.6-.43.83,0l2.23,4.24a3.72,3.72,0,0,0,1.19,1.24l4,2.3c.43.24.43.64,0,.89l-4,2.29a3.81,3.81,0,0,0-1.19,1.24L55.16,62c-.23.44-.6.44-.83,0L52.1,57.78a3.74,3.74,0,0,0-1.2-1.24l-4-2.29c-.43-.25-.43-.65,0-.89l4-2.3a3.65,3.65,0,0,0,1.2-1.24Z"/><path class="cls-9" d="M6.17,6c.26-.48.68-.48.93,0l.84,1.6A4,4,0,0,0,9.28,9l1.5.86a.52.52,0,0,1,0,1l-1.5.85A4.11,4.11,0,0,0,7.94,13.1L7.1,14.7c-.25.49-.67.49-.93,0l-.84-1.6A4.11,4.11,0,0,0,4,11.72l-1.5-.85a.52.52,0,0,1,0-1L4,9A4,4,0,0,0,5.33,7.64Z"/><rect class="cls-10" x="25.58" y="1.24" width="4.6" height="4.6" rx="1.33" transform="matrix(0.87, -0.5, 0.5, 0.87, 1.97, 14.41)"/></g></svg>