<svg xmlns="http://www.w3.org/2000/svg" width="585" height="501.18" viewBox="0 0 585 501.18">
  <g id="Filler_1" data-name="Filler 1" transform="translate(-204.884 -113.602)">
    <path id="Path_2125" data-name="Path 2125" d="M592.876,527.765s-223.773,1.448-271.537,0-124.173-57.3-115.824-159.732c7.686-94.2,110.033-132.656,110.033-132.656s-3.91-93.918,112.6-116.311,195.7,26.791,220.363,97.544,26.534,202.2,27.644,243.988S648.582,527.454,592.876,527.765Z" transform="translate(0 0)" fill="#dae0ed"/>
    <g id="Group_426" data-name="Group 426" transform="translate(213.903 192.768)">
      <path id="Path_2126" data-name="Path 2126" d="M211.55,263.443a8.968,8.968,0,0,0,8.917,9.039l7.239.054a8.932,8.932,0,0,1,8.349,5.818,62.957,62.957,0,0,0,2.706,6.373,8.931,8.931,0,0,1-1.786,10.283l-5.25,5.182a8.992,8.992,0,0,0-.095,12.706l9.106,9.242a8.992,8.992,0,0,0,12.705.095l5.886-5.8a8.75,8.75,0,0,1,9.85-1.732A62.422,62.422,0,0,0,275,317.08a9.113,9.113,0,0,1,6.048,8.66l-.054,8.132a8.968,8.968,0,0,0,8.917,9.039l12.976.095a8.968,8.968,0,0,0,9.039-8.917l.054-8.538A9.128,9.128,0,0,1,318,317.025c1.827-.663,3.626-1.394,5.372-2.206a8.974,8.974,0,0,1,10.162,1.84l6.089,6.17a8.992,8.992,0,0,0,12.706.095l9.242-9.106a8.992,8.992,0,0,0,.095-12.705l-5.967-6.062a8.94,8.94,0,0,1-1.678-10.229c.893-1.84,1.718-3.721,2.436-5.656a8.778,8.778,0,0,1,8.308-5.669l8.551.054a8.968,8.968,0,0,0,9.039-8.917l.095-12.976a8.968,8.968,0,0,0-8.917-9.039l-7.9-.054a8.791,8.791,0,0,1-8.308-6.008,64.01,64.01,0,0,0-2.422-6.238,8.917,8.917,0,0,1,1.908-10l5.48-5.4a8.992,8.992,0,0,0,.095-12.705l-9.106-9.242a8.992,8.992,0,0,0-12.705-.095l-4.925,4.858a9.019,9.019,0,0,1-10.405,1.6,66.2,66.2,0,0,0-6.414-2.814,9.012,9.012,0,0,1-5.859-8.484l.041-6.792a8.968,8.968,0,0,0-8.917-9.039l-12.976-.095a8.968,8.968,0,0,0-9.039,8.917l-.041,6.387a8.987,8.987,0,0,1-6.143,8.457,62.383,62.383,0,0,0-6.82,2.747,9,9,0,0,1-10.243-1.8l-4.465-4.519a8.979,8.979,0,0,0-12.705-.081l-9.242,9.106a8.992,8.992,0,0,0-.095,12.705l4.573,4.641a9.011,9.011,0,0,1,1.691,10.216,61.122,61.122,0,0,0-2.747,6.671,9.005,9.005,0,0,1-8.552,6.062l-6.6-.041a8.968,8.968,0,0,0-9.039,8.917Zm53.149-2.814a32.432,32.432,0,1,1,28.74,29.159A32.44,32.44,0,0,1,264.7,260.629Z" transform="translate(-211.55 -172.11)" fill="#bcbec0"/>
    </g>
    <g id="Group_430" data-name="Group 430" transform="translate(425.105 154.581)">
      <g id="Group_428" data-name="Group 428" transform="translate(5.387 5.05)">
        <g id="Group_427" data-name="Group 427">
          <path id="Path_2127" data-name="Path 2127" d="M466.2,258.573H387.992A16.394,16.394,0,0,1,371.62,242.2V163.992a16.394,16.394,0,0,1,16.372-16.372H466.2a16.394,16.394,0,0,1,16.372,16.372V242.2A16.386,16.386,0,0,1,466.2,258.573Zm-78.208-97.855a3.292,3.292,0,0,0-3.288,3.288v78.208a3.292,3.292,0,0,0,3.288,3.288H466.2a3.292,3.292,0,0,0,3.288-3.288V164.006a3.292,3.292,0,0,0-3.288-3.288Z" transform="translate(-371.62 -147.62)" fill="#fefded"/>
        </g>
      </g>
      <g id="Group_429" data-name="Group 429">
        <circle id="Ellipse_83" data-name="Ellipse 83" cx="13.598" cy="13.598" r="13.598" transform="matrix(0.987, -0.16, 0.16, 0.987, 0, 4.341)" fill="#bcbec0"/>
        <path id="Path_2128" data-name="Path 2128" d="M463.227,158.948a13.6,13.6,0,1,1-13.6-13.6A13.6,13.6,0,0,1,463.227,158.948Z" transform="translate(-343.491 -143.372)" fill="#bcbec0"/>
        <circle id="Ellipse_84" data-name="Ellipse 84" cx="13.598" cy="13.598" r="13.598" transform="translate(1.99 93.704)" fill="#bcbec0"/>
        <path id="Path_2129" data-name="Path 2129" d="M463.227,226.738a13.6,13.6,0,1,1-13.6-13.6A13.6,13.6,0,0,1,463.227,226.738Z" transform="translate(-343.491 -119.436)" fill="#bcbec0"/>
      </g>
    </g>
    <g id="Group_436" data-name="Group 436" transform="translate(297.105 287.254)">
      <path id="Path_2130" data-name="Path 2130" d="M592.652,508H303.944a30.9,30.9,0,0,1-30.9-30.9V272.844a30.9,30.9,0,0,1,30.9-30.9H592.652a30.912,30.912,0,0,1,30.9,30.9V477.092A30.894,30.894,0,0,1,592.652,508Z" transform="translate(-273.04 -241.94)" fill="#3cc4df"/>
      <path id="Path_2131" data-name="Path 2131" d="M623.557,275.821v-2.977a30.912,30.912,0,0,0-30.9-30.9H303.944a30.912,30.912,0,0,0-30.9,30.9v2.977Z" transform="translate(-273.04 -241.94)" fill="#28131f"/>
      <g id="Group_431" data-name="Group 431" transform="translate(21.23 10.026)">
        <path id="Path_2132" data-name="Path 2132" d="M302.856,256.413a7.063,7.063,0,1,1-7.063-7.063A7.068,7.068,0,0,1,302.856,256.413Z" transform="translate(-288.73 -249.35)" fill="#fefded"/>
        <path id="Path_2133" data-name="Path 2133" d="M318.816,256.413a7.063,7.063,0,1,1-7.063-7.063A7.068,7.068,0,0,1,318.816,256.413Z" transform="translate(-283.095 -249.35)" fill="#f1594d"/>
      </g>
      <path id="Path_2134" data-name="Path 2134" d="M404.034,445.3a1.663,1.663,0,0,1-1.664-1.664V284.354a1.664,1.664,0,0,1,3.329,0V443.639A1.663,1.663,0,0,1,404.034,445.3Z" transform="translate(-227.376 -227.552)" fill="#fefded"/>
      <g id="Group_434" data-name="Group 434" transform="translate(37.007 49.996)">
        <g id="Group_433" data-name="Group 433">
          <g id="Group_432" data-name="Group 432">
            <path id="Path_2135" data-name="Path 2135" d="M348.1,333.568H307.358a6.967,6.967,0,0,1-6.968-6.968V285.858a6.967,6.967,0,0,1,6.968-6.968H348.1a6.967,6.967,0,0,1,6.968,6.968V326.6A6.967,6.967,0,0,1,348.1,333.568Z" transform="translate(-300.39 -278.89)" fill="#fbb04f"/>
            <circle id="Ellipse_85" data-name="Ellipse 85" cx="27.346" cy="27.346" r="27.346" transform="translate(16.29 49.958) rotate(-37.982)" fill="#fefded"/>
          </g>
        </g>
        <path id="Path_2136" data-name="Path 2136" d="M347.936,299.09a27.349,27.349,0,0,0-27.346,27.346h20.364a6.967,6.967,0,0,0,6.968-6.968V299.09Z" transform="translate(-293.258 -271.758)" fill="#1db897"/>
      </g>
      <g id="Group_435" data-name="Group 435" transform="translate(36.993 147.946)">
        <path id="Path_2137" data-name="Path 2137" d="M346.988,439.766a41.878,41.878,0,1,1,41.878-41.878A41.918,41.918,0,0,1,346.988,439.766Zm0-80.427a38.549,38.549,0,1,0,38.549,38.549A38.592,38.592,0,0,0,346.988,359.339Z" transform="translate(-298.71 -349.61)" fill="#fefded"/>
        <path id="Path_2138" data-name="Path 2138" d="M346.229,359.344a8.064,8.064,0,1,1-8.064-8.064A8.067,8.067,0,0,1,346.229,359.344Z" transform="translate(-289.886 -351.28)" fill="#fefded"/>
        <path id="Path_2139" data-name="Path 2139" d="M347.859,418.784a8.064,8.064,0,1,1-8.064-8.064A8.067,8.067,0,0,1,347.859,418.784Z" transform="translate(-289.311 -330.293)" fill="#fefded"/>
        <path id="Path_2140" data-name="Path 2140" d="M367.884,397.129a8.064,8.064,0,1,1,8.064-8.064A8.067,8.067,0,0,1,367.884,397.129Z" transform="translate(-279.393 -340.786)" fill="#fefded"/>
        <path id="Path_2141" data-name="Path 2141" d="M308.444,397.129a8.064,8.064,0,1,1,8.064-8.064A8.067,8.067,0,0,1,308.444,397.129Z" transform="translate(-300.38 -340.786)" fill="#fefded"/>
      </g>
    </g>
    <g id="Group_441" data-name="Group 441" transform="translate(484.972 232.048)">
      <g id="Group_438" data-name="Group 438">
        <g id="Group_437" data-name="Group 437">
          <path id="Path_2142" data-name="Path 2142" d="M570.244,210.517,637.424,335.38a17.806,17.806,0,0,1-7.239,24.125L505.323,426.686a17.8,17.8,0,0,1-24.125-7.253L414.017,294.571a17.8,17.8,0,0,1,7.253-24.125l124.863-67.181A17.81,17.81,0,0,1,570.244,210.517Z" transform="translate(-411.883 -201.14)" fill="#fbb04f"/>
        </g>
        <circle id="Ellipse_86" data-name="Ellipse 86" cx="29.551" cy="29.551" r="29.551" transform="matrix(0.298, -0.954, 0.954, 0.298, 97.835, 78.6)" fill="#fefded"/>
        <path id="Path_2143" data-name="Path 2143" d="M601.272,262.06c-.474.23-.947.46-1.421.7a71.319,71.319,0,0,0-25.83,22.366,29.08,29.08,0,0,1-37.927,8.876A71.407,71.407,0,0,0,435.33,328.118l37.562,69.819a17.809,17.809,0,0,0,24.125,7.239L621.88,338a17.809,17.809,0,0,0,7.239-24.125Z" transform="translate(-403.605 -179.63)" fill="#f1594d"/>
      </g>
      <g id="Group_439" data-name="Group 439" transform="translate(6.532 97.699)">
        <path id="Path_2144" data-name="Path 2144" d="M711.75,352.467c-5.737-9.661-22.7-5.48-34.855,2.233,0,0,2.99-15.75,4.032-22.908,3.8-25.952,2.449-44.76-17.834-48.1-4.073-.677-7.848.92-11.244,3.559-1.7-8.592-6.143-12.53-14.708-13.544-22.407-2.639-31.256,8.254-55.422,66.071-2.76,6.589-13.3,31.161-24.193,44.408-11.8,14.356-56.424,11.8-66.22,4.195-8.971-6.955-14.031-21.311-17.928-31.919-7.888-21.487-18.28-44.395-40.39-37.562-23.544,7.28-16.481,33.421-9.932,57.127,5.629,20.364,25.289,93.4,25.289,93.4l-.528,30.39H625.68V479.373s27.075-23.26,37.426-36.709C709.179,382.844,722.074,369.867,711.75,352.467Z" transform="translate(-416.711 -273.344)" fill="#f7a095"/>
      </g>
      <path id="Path_2145" data-name="Path 2145" d="M548.235,427.628a1.694,1.694,0,0,1-1.1-.406,1.67,1.67,0,0,1-.162-2.354c13.355-15.344,27.508-44.584,40.931-84.581,10.175-30.323,16.4-56.356,16.453-56.613a1.662,1.662,0,1,1,3.234.771c-.068.257-6.319,26.426-16.535,56.884A473.261,473.261,0,0,1,572.686,388.5c-7.767,16.819-15.574,29.795-23.219,38.563A1.585,1.585,0,0,1,548.235,427.628Z" transform="translate(-364.329 -172.45)" fill="#db5449"/>
      <path id="Path_2146" data-name="Path 2146" d="M578.362,432.557a1.656,1.656,0,0,1-1.326-2.652c16.778-22.488,27.224-47.453,33.042-64.434a233.861,233.861,0,0,0,8.687-31.852,1.662,1.662,0,1,1,3.274.568,238.987,238.987,0,0,1-8.8,32.285c-5.886,17.225-16.494,42.568-33.543,65.408A1.66,1.66,0,0,1,578.362,432.557Z" transform="translate(-353.687 -154.85)" fill="#db5449"/>
      <g id="Group_440" data-name="Group 440" transform="translate(37.72 324.199)">
        <rect id="Rectangle_412" data-name="Rectangle 412" width="177.768" height="58.534" fill="#28131f"/>
      </g>
      <path id="Path_2147" data-name="Path 2147" d="M586.616,427.739H528.974a1.664,1.664,0,0,1,0-3.329h57.641a1.664,1.664,0,0,1,0,3.329Z" transform="translate(-371.128 -122.306)" fill="#db5449"/>
    </g>
  </g>
</svg>
